<svg xmlns="http://www.w3.org/2000/svg" fill="none" viewBox="0 0 22 15">
    <path fill="currentColor" d="M1.8 7.04C.6 7.04 0 6.46 0 5.26V2.02C0 .82.6.24 1.8.24h7.18c1.2 0 1.8.58 1.8 1.78v3.24c0 1.2-.6 1.78-1.8 1.78H1.8Zm13.3 6.5c-1.2 0-1.8-.59-1.8-1.79V3.07c0-1.2.6-1.77 1.8-1.77h5.1c1.2 0 1.8.57 1.8 1.77v8.68c0 1.2-.6 1.78-1.8 1.78h-5.1ZM1.9 5.85h7c.45 0 .7-.24.7-.73V2.15c0-.5-.25-.73-.7-.73h-7c-.47 0-.72.24-.72.73v2.98c0 .49.25.73.71.73Zm13.29 6.5h4.91c.47 0 .72-.25.72-.73V3.2c0-.49-.25-.72-.72-.72h-4.9c-.46 0-.7.23-.7.72v8.43c0 .48.24.72.7.72Zm-11.4 2.09c-1.2 0-1.8-.6-1.8-1.79v-2.2c0-1.2.6-1.77 1.8-1.77h6.16c1.2 0 1.8.58 1.8 1.77v2.2c0 1.2-.6 1.79-1.8 1.79H3.8Zm.1-1.18h5.96c.47 0 .72-.25.72-.73v-1.95c0-.49-.25-.72-.72-.72H3.88c-.46 0-.7.23-.7.72v1.95c0 .48.24.73.7.73Z"/>
</svg>