<svg xmlns="http://www.w3.org/2000/svg" fill="none" viewBox="0 0 18 20">
    <path fill="currentColor" fill-rule="evenodd" d="M1.64 12.48c-.8.78-1.64 1.6-1.64 2.54 0 .78.6 1.3 1.55 1.3h3.81A3.58 3.58 0 0 0 9 19.73a3.6 3.6 0 0 0 3.64-3.4h3.81c.97 0 1.55-.52 1.55-1.3 0-.96-.86-1.79-1.68-2.58l-.06-.06c-.65-.64-.8-1.9-.92-3.13-.01-.54-.05-1.04-.1-1.52-.55.22-1.23.31-1.81.24.04.42.08.9.09 1.44.1 1.76.4 3.09 1.03 3.82.26.3.54.59.78.83l.43.46v.11H2.22v-.11l.38-.4c.26-.25.57-.56.85-.9.64-.72.94-2.05 1.03-3.81.11-3.77 1.26-5.03 2.77-5.43.22-.06.35-.17.37-.42.04-.95.56-1.58 1.38-1.58a1 1 0 0 1 .43.07c.16-.56.45-1.06.83-1.48a2.87 2.87 0 0 0-4.03 1.86c-2.42.89-3.44 3.24-3.56 6.75-.12 1.27-.27 2.56-.93 3.2l-.1.1ZM9 18.24c-1.05 0-1.8-.75-1.88-1.91h3.76c-.06 1.16-.82 1.9-1.88 1.9Z" clip-rule="evenodd"/>
    <path fill="#DB2D37" d="M13.64 6.75a3.2 3.2 0 0 1 0-6.4c1.74 0 3.2 1.45 3.2 3.2 0 1.76-1.46 3.2-3.2 3.2Z"/>
</svg>