<svg xmlns="http://www.w3.org/2000/svg" fill="none" viewBox="0 0 18 15">
    <path fill="currentColor" d="M1.8 6.73c-.49 0-.86-.13-1.11-.38C.44 6.1.3 5.71.3 5.2V1.7C.31 1.2.44.8.7.55.94.3 1.3.18 1.8.18h5.06c.5 0 .87.12 1.12.37.25.25.37.64.37 1.15v3.5c0 .51-.12.9-.37 1.15-.25.25-.63.38-1.12.38H1.8Zm9.34 0c-.5 0-.87-.13-1.12-.38-.25-.25-.37-.64-.37-1.15V1.7c0-.51.12-.9.37-1.15.25-.25.63-.37 1.12-.37h5.06c.49 0 .86.12 1.11.37.25.25.38.64.38 1.15v3.5c0 .51-.13.9-.38 1.15-.25.25-.62.38-1.11.38h-5.06ZM1.8 14.56c-.49 0-.86-.12-1.11-.37-.25-.25-.38-.64-.38-1.15v-3.5c0-.51.13-.9.38-1.14.25-.26.62-.38 1.11-.38h5.06c.5 0 .87.12 1.12.38.25.25.37.63.37 1.14v3.5c0 .51-.12.9-.37 1.15-.25.25-.63.37-1.12.37H1.8Zm.02-1.1h5.02c.13 0 .23-.04.3-.1a.46.46 0 0 0 .11-.32v-3.5c0-.14-.04-.25-.1-.31-.08-.08-.18-.11-.31-.11H1.82c-.14 0-.24.03-.3.1-.07.07-.1.18-.1.33v3.49c0 .14.03.24.1.31.06.07.16.11.3.11Zm0-7.84h5.02c.13 0 .23-.03.3-.1a.46.46 0 0 0 .11-.32V1.7c0-.14-.04-.24-.1-.3a.41.41 0 0 0-.31-.12H1.82c-.14 0-.24.04-.3.11-.07.07-.1.17-.1.31v3.5c0 .14.03.24.1.32.06.07.16.1.3.1Zm9.32 8.94c-.5 0-.87-.12-1.12-.37-.25-.25-.37-.64-.37-1.15v-3.5c0-.51.12-.9.37-1.14.25-.26.63-.38 1.12-.38h5.06c.49 0 .86.12 1.11.38.25.25.38.63.38 1.14v3.5c0 .51-.13.9-.38 1.15-.25.25-.62.37-1.11.37h-5.06Zm.02-1.1h5.02c.14 0 .24-.04.3-.1.07-.08.1-.18.1-.32v-3.5c0-.14-.03-.25-.1-.31-.06-.08-.16-.11-.3-.11h-5.02c-.14 0-.24.03-.3.1-.08.07-.11.18-.11.33v3.49c0 .14.03.24.1.31s.17.11.31.11Zm0-7.84h5.02c.14 0 .24-.03.3-.1.07-.08.1-.18.1-.32V1.7c0-.14-.03-.24-.1-.3-.06-.08-.16-.12-.3-.12h-5.02c-.14 0-.24.04-.3.11-.08.07-.11.17-.11.31v3.5c0 .14.03.24.1.32.07.07.17.1.31.1Z"/>
</svg>