<svg xmlns="http://www.w3.org/2000/svg" fill="none" viewBox="0 0 16 15">
    <path fill="currentColor" d="M2.66 14.56c-1.63 0-2.45-.8-2.45-2.42V2.6C.21.98 1.03.18 2.66.18h10.68c1.63 0 2.44.81 2.44 2.42v9.54c0 1.61-.81 2.42-2.44 2.42H2.66Zm-.11-1.26h10.89c.7 0 1.08-.36 1.08-1.09V4.84c0-.71-.39-1.09-1.08-1.09H2.54c-.69 0-1.07.38-1.07 1.1v7.36c0 .73.38 1.1 1.08 1.1Zm3.93-6.75c-.28 0-.37-.07-.37-.35v-.46c0-.27.1-.36.37-.36h.46c.27 0 .36.09.36.36v.46c0 .28-.09.35-.36.35h-.46Zm2.59 0c-.27 0-.37-.07-.37-.35v-.46c0-.27.1-.36.37-.36h.46c.27 0 .37.09.37.36v.46c0 .28-.1.35-.37.35h-.46Zm2.6 0c-.28 0-.37-.07-.37-.35v-.46c0-.27.1-.36.36-.36h.46c.28 0 .37.09.37.36v.46c0 .28-.1.35-.37.35h-.46Zm-7.8 2.56c-.28 0-.36-.08-.36-.35V8.3c0-.28.08-.35.36-.35h.46c.28 0 .36.07.36.35v.46c0 .27-.08.35-.36.35h-.46Zm2.6 0c-.28 0-.37-.08-.37-.35V8.3c0-.28.1-.35.37-.35h.46c.27 0 .36.07.36.35v.46c0 .27-.09.35-.36.35h-.46Zm2.59 0c-.27 0-.37-.08-.37-.35V8.3c0-.28.1-.35.37-.35h.46c.27 0 .37.07.37.35v.46c0 .27-.1.35-.37.35h-.46Zm2.6 0c-.28 0-.37-.08-.37-.35V8.3c0-.28.1-.35.36-.35h.46c.28 0 .37.07.37.35v.46c0 .27-.1.35-.37.35h-.46Zm-7.79 2.56c-.28 0-.36-.08-.36-.36v-.46c0-.27.08-.35.36-.35h.46c.28 0 .36.08.36.35v.46c0 .28-.08.36-.36.36h-.46Zm2.6 0c-.28 0-.37-.08-.37-.36v-.46c0-.27.1-.35.37-.35h.46c.27 0 .36.08.36.35v.46c0 .28-.09.36-.36.36h-.46Zm2.59 0c-.27 0-.37-.08-.37-.36v-.46c0-.27.1-.35.37-.35h.46c.27 0 .37.08.37.35v.46c0 .28-.1.36-.37.36h-.46Z"/>
</svg>