<svg xmlns="http://www.w3.org/2000/svg" fill="none" viewBox="0 0 14 15">
    <path fill="currentColor" d="M2.09 14.73C.8 14.73.17 14.3.17 13.48c0-.51.16-1.06.47-1.64A5.9 5.9 0 0 1 2 10.21a7.53 7.53 0 0 1 5.01-1.74c1.06 0 2 .16 2.84.48.85.33 1.56.75 2.15 1.26.6.51 1.05 1.06 1.36 1.63.31.58.47 1.13.47 1.64 0 .83-.64 1.25-1.91 1.25H2.09Zm-.37-1.18h10.56c.1 0 .17-.02.21-.05.05-.03.07-.09.07-.17 0-.32-.12-.69-.36-1.1-.24-.43-.6-.83-1.07-1.22A6.68 6.68 0 0 0 7 9.65c-.9 0-1.69.13-2.38.39-.7.25-1.28.58-1.75.97-.48.39-.84.8-1.08 1.22-.24.41-.36.78-.36 1.1 0 .08.02.14.06.17.05.03.12.05.23.05ZM7 7.5c-.62 0-1.18-.16-1.7-.5a3.72 3.72 0 0 1-1.67-3.16A3.64 3.64 0 0 1 5.3.74 3.1 3.1 0 0 1 7 .26c.63 0 1.2.16 1.7.47a3.61 3.61 0 0 1 1.67 3.1A3.75 3.75 0 0 1 8.7 7a3.1 3.1 0 0 1-1.7.5Zm0-1.18c.39 0 .74-.11 1.05-.34a2.62 2.62 0 0 0 1.07-2.15c0-.46-.1-.86-.3-1.22a2.2 2.2 0 0 0-.76-.86A1.9 1.9 0 0 0 7 1.44c-.39 0-.74.1-1.06.32a2.47 2.47 0 0 0-1.06 2.08c0 .46.1.88.3 1.25.19.38.45.68.77.9.32.22.67.33 1.05.33Z"/>
</svg>