<svg xmlns="http://www.w3.org/2000/svg" fill="none" viewBox="0 0 22 15">
    <path fill="currentColor" d="M15.05 7.36c-1.85 0-3.37-1.64-3.37-3.65 0-1.98 1.52-3.58 3.37-3.58a3.46 3.46 0 0 1 3.38 3.57c0 2.01-1.52 3.66-3.38 3.66Zm-9 .07c-1.6 0-2.92-1.44-2.92-3.2 0-1.73 1.32-3.15 2.92-3.15 1.63 0 2.93 1.4 2.93 3.13 0 1.77-1.32 3.22-2.93 3.22Zm9-1.25c1.15 0 2.12-1.1 2.12-2.48 0-1.37-.95-2.4-2.12-2.4-1.16 0-2.11 1.05-2.11 2.41 0 1.38.97 2.47 2.11 2.47Zm-9 .09c.97 0 1.78-.92 1.78-2.06 0-1.1-.8-1.97-1.78-1.97-.96 0-1.76.88-1.76 1.99 0 1.12.8 2.04 1.76 2.04ZM1.7 14.59c-1.05 0-1.58-.43-1.58-1.3 0-2.6 2.65-4.97 5.93-4.97 1.29 0 2.5.34 3.5 1a4.1 4.1 0 0 0-.88.84 5.13 5.13 0 0 0-2.62-.68c-2.56 0-4.77 1.8-4.77 3.74 0 .15.07.22.24.22h5.71c-.05.47.23.94.6 1.15H1.7Zm8.44 0c-1.3 0-1.91-.39-1.91-1.25 0-2.04 2.58-5 6.82-5s6.82 2.96 6.82 5c0 .86-.61 1.25-1.92 1.25h-9.8Zm-.37-1.18h10.56c.2 0 .29-.05.29-.21 0-1.3-1.99-3.68-5.57-3.68S9.48 11.9 9.48 13.2c0 .16.08.21.29.21Z"/>
</svg>