<svg xmlns="http://www.w3.org/2000/svg" fill="none" viewBox="0 0 16 17">
    <path fill="currentColor" d="M8 16.33a7.65 7.65 0 0 1-3.08-.63 8.16 8.16 0 0 1-4.26-4.26 7.67 7.67 0 0 1-.63-3.08c0-1.09.21-2.11.63-3.07A8.2 8.2 0 0 1 4.9 1.02 7.67 7.67 0 0 1 8 .39c1.1 0 2.12.2 3.08.63a8.13 8.13 0 0 1 4.27 4.27c.42.96.63 1.98.63 3.07 0 1.09-.21 2.11-.63 3.08a8.16 8.16 0 0 1-4.27 4.26c-.96.42-1.98.63-3.07.63ZM8 15a6.5 6.5 0 0 0 4.7-1.94 6.59 6.59 0 0 0 1.94-4.7 6.5 6.5 0 0 0-1.94-4.7A6.59 6.59 0 0 0 8 1.72a6.5 6.5 0 0 0-4.7 1.94 6.58 6.58 0 0 0-1.93 4.7A6.58 6.58 0 0 0 8 15Zm0-2.17a.4.4 0 0 1-.27-.1.36.36 0 0 1-.1-.27v-.56a2.91 2.91 0 0 1-1.39-.49 1.82 1.82 0 0 1-.8-1.33.44.44 0 0 1 .46-.46c.11 0 .2.03.29.1a.6.6 0 0 1 .2.29c.06.26.19.48.4.66.2.18.48.3.83.35v-2.3l-.05-.02A3.23 3.23 0 0 1 6.09 8c-.33-.3-.5-.7-.5-1.2 0-.53.2-.96.57-1.3.38-.36.87-.57 1.46-.63v-.54c0-.25.13-.37.37-.37.1 0 .2.03.26.1.07.07.1.16.1.27v.54c.5.05.94.22 1.3.5a1.8 1.8 0 0 1 .76 1.28c0 .13-.05.25-.14.33a.44.44 0 0 1-.32.13c-.23 0-.4-.13-.48-.38a1.29 1.29 0 0 0-.4-.64 1.42 1.42 0 0 0-.71-.32v2.18l.1.02c.69.12 1.2.34 1.54.66.34.33.52.75.52 1.28 0 .6-.21 1.06-.63 1.4a2.8 2.8 0 0 1-1.53.6v.55c0 .11-.04.2-.11.27a.35.35 0 0 1-.26.1Zm-.38-5.08V5.77c-.33.05-.6.17-.78.36a.86.86 0 0 0-.29.63c0 .23.09.42.25.58.16.16.42.29.77.4l.05.01Zm.74 1.15v2.12c.4-.04.7-.16.89-.35.2-.2.3-.43.3-.7a.9.9 0 0 0-.23-.63c-.15-.16-.41-.3-.79-.4l-.17-.04Z"/>
</svg>