<svg xmlns="http://www.w3.org/2000/svg" fill="none" viewBox="0 0 20 15">
    <path fill="currentColor" d="M1.91 14.71c-.6 0-1.07-.14-1.38-.44-.3-.29-.46-.72-.46-1.3V6.3c0-.57.15-1 .46-1.3.31-.3.77-.45 1.38-.45h2.1c.62 0 1.08.15 1.39.45.31.3.47.73.47 1.3v6.67c0 .58-.16 1.01-.47 1.3-.31.3-.78.44-1.38.44h-2.1Zm.2-1.18h1.7c.3 0 .52-.06.64-.18.12-.11.17-.32.17-.6V6.52c0-.3-.05-.5-.17-.62-.12-.12-.34-.18-.64-.18h-1.7c-.29 0-.5.06-.62.18s-.18.32-.18.62v6.21c0 .3.06.5.18.61.12.12.33.18.63.18Zm6.83 1.18c-.61 0-1.07-.14-1.39-.44-.3-.29-.46-.72-.46-1.3V4.03c0-.58.16-1.01.46-1.3.32-.3.78-.45 1.39-.45h2.1c.62 0 1.07.15 1.38.45.31.29.47.72.47 1.3v8.94c0 .58-.16 1.01-.47 1.3-.3.3-.76.44-1.37.44H8.94Zm.2-1.18h1.7c.3 0 .5-.06.63-.18.12-.11.18-.32.18-.6v-8.5c0-.28-.06-.49-.18-.6-.12-.13-.33-.19-.63-.19h-1.7c-.3 0-.5.06-.62.18s-.18.33-.18.62v8.48c0 .3.06.5.18.61.12.12.33.18.63.18Zm6.82 1.18c-.6 0-1.06-.14-1.37-.44-.31-.29-.46-.72-.46-1.3V1.75c0-.58.15-1.01.46-1.3.3-.3.77-.45 1.37-.45h2.11c.61 0 1.07.15 1.38.45.32.29.47.72.47 1.3v11.22c0 .58-.15 1.01-.47 1.3-.3.3-.77.44-1.38.44h-2.1Zm.21-1.18h1.7c.3 0 .51-.06.63-.18.12-.11.18-.32.18-.6V1.97c0-.3-.06-.5-.18-.62s-.33-.18-.63-.18h-1.7c-.3 0-.5.06-.62.18-.12.11-.18.32-.18.62v10.76c0 .3.06.5.18.61.12.12.32.18.62.18Z"/>
</svg>