<svg xmlns="http://www.w3.org/2000/svg" viewBox="0 0 20 16">
  <path fill="currentColor" d="M2.82 15.66c-.87 0-1.52-.22-1.96-.65-.43-.42-.65-1.07-.65-1.92V2.95c0-.86.22-1.5.65-1.92C1.3.59 1.96.38 2.82.38h14.36c.87 0 1.53.21 1.96.65.43.42.65 1.06.65 1.92V13.1c0 .85-.22 1.5-.65 1.92-.43.43-1.09.65-1.96.65H2.82Zm.02-1.34h14.32c.41 0 .73-.1.95-.32.23-.22.34-.55.34-.98v-10c0-.43-.11-.76-.34-.97a1.3 1.3 0 0 0-.95-.34H2.84c-.42 0-.74.12-.96.34-.22.21-.33.54-.33.97v10c0 .43.11.76.33.98.22.22.54.32.96.32Zm3.7.26V1.47h1.3v13.11h-1.3ZM4.94 4.8H3.16a.45.45 0 0 1-.32-.14.46.46 0 0 1-.14-.32c0-.13.04-.24.14-.32.1-.1.2-.15.32-.15h1.78c.13 0 .23.05.33.15.1.08.15.2.15.32s-.05.22-.15.32c-.1.1-.2.14-.33.14Zm0 2.15H3.16a.45.45 0 0 1-.32-.14.45.45 0 0 1-.14-.33c0-.12.04-.23.14-.31.1-.1.2-.15.32-.15h1.78c.13 0 .23.05.33.15.1.08.15.19.15.31 0 .13-.05.24-.15.33-.1.1-.2.14-.33.14Zm0 2.15H3.16a.46.46 0 0 1-.32-.14.45.45 0 0 1 0-.64c.1-.1.2-.15.32-.15h1.78c.13 0 .23.05.33.15.1.08.15.2.15.32s-.05.23-.15.32c-.1.1-.2.14-.33.14Z"/>
</svg>
